<mxfile host="app.diagrams.net" agent="Mozilla/5.0 (Windows NT 10.0; Win64; x64) AppleWebKit/537.36 (KHTML, like Gecko) Chrome/131.0.0.0 Safari/537.36" version="26.0.2">
  <diagram name="Page-1" id="7HnftfDxoFTVQ5EQS0fX">
    <mxGraphModel dx="1477" dy="1764" grid="1" gridSize="10" guides="1" tooltips="1" connect="1" arrows="1" fold="1" page="1" pageScale="1" pageWidth="850" pageHeight="1100" math="0" shadow="0">
      <root>
        <mxCell id="0" />
        <mxCell id="1" parent="0" />
        <mxCell id="OfUk5gbmc0DUeR7QcJuK-2" value="" style="rounded=1;whiteSpace=wrap;html=1;absoluteArcSize=1;arcSize=14;strokeWidth=2;" parent="1" vertex="1">
          <mxGeometry x="160" y="-360" width="820" height="1640" as="geometry" />
        </mxCell>
        <mxCell id="OfUk5gbmc0DUeR7QcJuK-4" value="&lt;span style=&quot;font-family: &amp;quot;Nunito Sans&amp;quot;, sans-serif; font-size: 14px; text-align: start; white-space-collapse: preserve; background-color: rgb(255, 255, 255);&quot;&gt;SystÃ¨me de gestion de contenu d&#39;une platform &lt;/span&gt;&lt;font face=&quot;Nunito Sans, sans-serif&quot;&gt;&lt;span style=&quot;font-size: 14px; white-space-collapse: preserve;&quot;&gt;CareerLink&lt;/span&gt;&lt;/font&gt;" style="whiteSpace=wrap;html=1;align=center;" parent="1" vertex="1">
          <mxGeometry x="160" y="-360" width="400" height="70" as="geometry" />
        </mxCell>
        <mxCell id="OfUk5gbmc0DUeR7QcJuK-5" value="&lt;font style=&quot;font-size: 14px;&quot;&gt;&lt;b&gt;Visitor&lt;/b&gt;&lt;/font&gt;" style="shape=umlActor;verticalLabelPosition=bottom;verticalAlign=top;html=1;" parent="1" vertex="1">
          <mxGeometry x="40" y="-200" width="80" height="160" as="geometry" />
        </mxCell>
        <mxCell id="OfUk5gbmc0DUeR7QcJuK-6" value="view main page" style="ellipse;whiteSpace=wrap;html=1;align=center;newEdgeStyle={&quot;edgeStyle&quot;:&quot;entityRelationEdgeStyle&quot;,&quot;startArrow&quot;:&quot;none&quot;,&quot;endArrow&quot;:&quot;none&quot;,&quot;segment&quot;:10,&quot;curved&quot;:1,&quot;sourcePerimeterSpacing&quot;:0,&quot;targetPerimeterSpacing&quot;:0};treeFolding=1;treeMoving=1;fillColor=#FFFF00;" parent="1" vertex="1">
          <mxGeometry x="230" y="-145" width="120" height="50" as="geometry" />
        </mxCell>
        <mxCell id="OfUk5gbmc0DUeR7QcJuK-46" style="edgeStyle=orthogonalEdgeStyle;rounded=0;orthogonalLoop=1;jettySize=auto;html=1;" parent="1" source="OfUk5gbmc0DUeR7QcJuK-7" target="OfUk5gbmc0DUeR7QcJuK-11" edge="1">
          <mxGeometry relative="1" as="geometry">
            <Array as="points">
              <mxPoint x="80" y="290" />
              <mxPoint x="80" y="290" />
            </Array>
          </mxGeometry>
        </mxCell>
        <mxCell id="OfUk5gbmc0DUeR7QcJuK-7" value="&lt;span style=&quot;box-sizing: border-box; border: 0px solid; --tw-border-spacing-x: 0; --tw-border-spacing-y: 0; --tw-translate-x: 0; --tw-translate-y: 0; --tw-rotate: 0; --tw-skew-x: 0; --tw-skew-y: 0; --tw-scale-x: 1; --tw-scale-y: 1; --tw-pan-x: ; --tw-pan-y: ; --tw-pinch-zoom: ; --tw-scroll-snap-strictness: proximity; --tw-gradient-from-position: ; --tw-gradient-via-position: ; --tw-gradient-to-position: ; --tw-ordinal: ; --tw-slashed-zero: ; --tw-numeric-figure: ; --tw-numeric-spacing: ; --tw-numeric-fraction: ; --tw-ring-inset: ; --tw-ring-offset-width: 0px; --tw-ring-offset-color: #fff; --tw-ring-color: rgba(59,130,246,.5); --tw-ring-offset-shadow: 0 0 #0000; --tw-ring-shadow: 0 0 #0000; --tw-shadow: 0 0 #0000; --tw-shadow-colored: 0 0 #0000; --tw-blur: ; --tw-brightness: ; --tw-contrast: ; --tw-grayscale: ; --tw-hue-rotate: ; --tw-invert: ; --tw-saturate: ; --tw-sepia: ; --tw-drop-shadow: ; --tw-backdrop-blur: ; --tw-backdrop-brightness: ; --tw-backdrop-contrast: ; --tw-backdrop-grayscale: ; --tw-backdrop-hue-rotate: ; --tw-backdrop-invert: ; --tw-backdrop-opacity: ; --tw-backdrop-saturate: ; --tw-backdrop-sepia: ; --tw-contain-size: ; --tw-contain-layout: ; --tw-contain-paint: ; --tw-contain-style: ; font-weight: bolder; font-family: &amp;quot;Nunito Sans&amp;quot;, sans-serif; font-size: 14px; text-align: start; white-space: pre-wrap; background-color: rgb(255, 255, 255);&quot;&gt;Recruteur&lt;/span&gt;" style="shape=umlActor;verticalLabelPosition=bottom;verticalAlign=top;html=1;" parent="1" vertex="1">
          <mxGeometry x="38" y="390" width="80" height="160" as="geometry" />
        </mxCell>
        <mxCell id="OfUk5gbmc0DUeR7QcJuK-8" value="Login" style="ellipse;whiteSpace=wrap;html=1;align=center;newEdgeStyle={&quot;edgeStyle&quot;:&quot;entityRelationEdgeStyle&quot;,&quot;startArrow&quot;:&quot;none&quot;,&quot;endArrow&quot;:&quot;none&quot;,&quot;segment&quot;:10,&quot;curved&quot;:1,&quot;sourcePerimeterSpacing&quot;:0,&quot;targetPerimeterSpacing&quot;:0};treeFolding=1;treeMoving=1;" parent="1" vertex="1">
          <mxGeometry x="485" y="-104" width="120" height="40" as="geometry" />
        </mxCell>
        <mxCell id="OfUk5gbmc0DUeR7QcJuK-9" value="Create an account" style="ellipse;whiteSpace=wrap;html=1;align=center;newEdgeStyle={&quot;edgeStyle&quot;:&quot;entityRelationEdgeStyle&quot;,&quot;startArrow&quot;:&quot;none&quot;,&quot;endArrow&quot;:&quot;none&quot;,&quot;segment&quot;:10,&quot;curved&quot;:1,&quot;sourcePerimeterSpacing&quot;:0,&quot;targetPerimeterSpacing&quot;:0};treeFolding=1;treeMoving=1;" parent="1" vertex="1">
          <mxGeometry x="487.5" y="-182" width="115" height="41" as="geometry" />
        </mxCell>
        <mxCell id="OfUk5gbmc0DUeR7QcJuK-47" style="edgeStyle=orthogonalEdgeStyle;rounded=0;orthogonalLoop=1;jettySize=auto;html=1;" parent="1" source="OfUk5gbmc0DUeR7QcJuK-10" target="OfUk5gbmc0DUeR7QcJuK-7" edge="1">
          <mxGeometry relative="1" as="geometry" />
        </mxCell>
        <mxCell id="OfUk5gbmc0DUeR7QcJuK-10" value="&lt;b&gt;&lt;font style=&quot;font-size: 14px;&quot;&gt;Admin&lt;/font&gt;&lt;/b&gt;" style="shape=umlActor;verticalLabelPosition=bottom;verticalAlign=top;html=1;" parent="1" vertex="1">
          <mxGeometry x="38" y="830" width="80" height="160" as="geometry" />
        </mxCell>
        <mxCell id="OfUk5gbmc0DUeR7QcJuK-38" style="edgeStyle=orthogonalEdgeStyle;rounded=0;orthogonalLoop=1;jettySize=auto;html=1;" parent="1" source="OfUk5gbmc0DUeR7QcJuK-11" edge="1">
          <mxGeometry relative="1" as="geometry">
            <mxPoint x="80" y="-20" as="targetPoint" />
          </mxGeometry>
        </mxCell>
        <mxCell id="OfUk5gbmc0DUeR7QcJuK-11" value="&lt;b&gt;&lt;font style=&quot;font-size: 14px;&quot;&gt;candidate&lt;/font&gt;&lt;/b&gt;" style="shape=umlActor;verticalLabelPosition=bottom;verticalAlign=top;html=1;" parent="1" vertex="1">
          <mxGeometry x="41" y="90" width="80" height="160" as="geometry" />
        </mxCell>
        <mxCell id="OfUk5gbmc0DUeR7QcJuK-12" value="" style="endArrow=none;html=1;rounded=0;entryX=0;entryY=0.5;entryDx=0;entryDy=0;exitX=0.5;exitY=0.5;exitDx=0;exitDy=0;exitPerimeter=0;" parent="1" source="OfUk5gbmc0DUeR7QcJuK-5" target="OfUk5gbmc0DUeR7QcJuK-6" edge="1">
          <mxGeometry width="50" height="50" relative="1" as="geometry">
            <mxPoint x="310" y="-90" as="sourcePoint" />
            <mxPoint x="360" y="-140" as="targetPoint" />
          </mxGeometry>
        </mxCell>
        <mxCell id="OfUk5gbmc0DUeR7QcJuK-18" value="" style="endArrow=open;endFill=1;endSize=12;html=1;rounded=0;entryX=1;entryY=0.5;entryDx=0;entryDy=0;exitX=0;exitY=0.5;exitDx=0;exitDy=0;" parent="1" source="OfUk5gbmc0DUeR7QcJuK-9" target="OfUk5gbmc0DUeR7QcJuK-6" edge="1">
          <mxGeometry width="160" relative="1" as="geometry">
            <mxPoint x="210" y="-60" as="sourcePoint" />
            <mxPoint x="370" y="-60" as="targetPoint" />
            <Array as="points">
              <mxPoint x="430" y="-120" />
            </Array>
          </mxGeometry>
        </mxCell>
        <mxCell id="OfUk5gbmc0DUeR7QcJuK-31" value="&lt;font style=&quot;font-size: 10px;&quot;&gt;Extend&lt;/font&gt;" style="text;html=1;align=center;verticalAlign=middle;whiteSpace=wrap;rounded=0;rotation=0;" parent="1" vertex="1">
          <mxGeometry x="380" y="-134" width="30" height="10" as="geometry" />
        </mxCell>
        <mxCell id="OfUk5gbmc0DUeR7QcJuK-32" value="" style="endArrow=open;endFill=1;endSize=12;html=1;rounded=0;entryX=1;entryY=0.5;entryDx=0;entryDy=0;exitX=0;exitY=0.5;exitDx=0;exitDy=0;" parent="1" source="OfUk5gbmc0DUeR7QcJuK-8" target="OfUk5gbmc0DUeR7QcJuK-6" edge="1">
          <mxGeometry width="160" relative="1" as="geometry">
            <mxPoint x="410" y="-60" as="sourcePoint" />
            <mxPoint x="360" y="-110" as="targetPoint" />
            <Array as="points">
              <mxPoint x="430" y="-120" />
            </Array>
          </mxGeometry>
        </mxCell>
        <mxCell id="OfUk5gbmc0DUeR7QcJuK-52" value="&lt;div style=&quot;text-align: start;&quot;&gt;&lt;font face=&quot;Nunito Sans, sans-serif&quot;&gt;&lt;span style=&quot;font-size: 14px; white-space-collapse: preserve;&quot;&gt;Job Search&lt;/span&gt;&lt;/font&gt;&lt;/div&gt;" style="ellipse;whiteSpace=wrap;html=1;align=center;fillColor=#FFFF00;" parent="1" vertex="1">
          <mxGeometry x="240" y="118" width="170" height="52" as="geometry" />
        </mxCell>
        <mxCell id="OfUk5gbmc0DUeR7QcJuK-53" value="" style="endArrow=none;html=1;rounded=0;entryX=0;entryY=0.5;entryDx=0;entryDy=0;exitX=1;exitY=0.3333333333333333;exitDx=0;exitDy=0;exitPerimeter=0;" parent="1" source="OfUk5gbmc0DUeR7QcJuK-11" target="OfUk5gbmc0DUeR7QcJuK-52" edge="1">
          <mxGeometry width="50" height="50" relative="1" as="geometry">
            <mxPoint x="120" y="169.68" as="sourcePoint" />
            <mxPoint x="270" y="169.68" as="targetPoint" />
          </mxGeometry>
        </mxCell>
        <mxCell id="OfUk5gbmc0DUeR7QcJuK-54" value="View full details of the offer" style="ellipse;whiteSpace=wrap;html=1;align=center;newEdgeStyle={&quot;edgeStyle&quot;:&quot;entityRelationEdgeStyle&quot;,&quot;startArrow&quot;:&quot;none&quot;,&quot;endArrow&quot;:&quot;none&quot;,&quot;segment&quot;:10,&quot;curved&quot;:1,&quot;sourcePerimeterSpacing&quot;:0,&quot;targetPerimeterSpacing&quot;:0};treeFolding=1;treeMoving=1;" parent="1" vertex="1">
          <mxGeometry x="780" y="123" width="150" height="41" as="geometry" />
        </mxCell>
        <mxCell id="OfUk5gbmc0DUeR7QcJuK-55" value="tags Search" style="ellipse;whiteSpace=wrap;html=1;align=center;newEdgeStyle={&quot;edgeStyle&quot;:&quot;entityRelationEdgeStyle&quot;,&quot;startArrow&quot;:&quot;none&quot;,&quot;endArrow&quot;:&quot;none&quot;,&quot;segment&quot;:10,&quot;curved&quot;:1,&quot;sourcePerimeterSpacing&quot;:0,&quot;targetPerimeterSpacing&quot;:0};treeFolding=1;treeMoving=1;" parent="1" vertex="1">
          <mxGeometry x="540" y="124" width="120" height="40" as="geometry" />
        </mxCell>
        <mxCell id="OfUk5gbmc0DUeR7QcJuK-56" value="Categories Search" style="ellipse;whiteSpace=wrap;html=1;align=center;newEdgeStyle={&quot;edgeStyle&quot;:&quot;entityRelationEdgeStyle&quot;,&quot;startArrow&quot;:&quot;none&quot;,&quot;endArrow&quot;:&quot;none&quot;,&quot;segment&quot;:10,&quot;curved&quot;:1,&quot;sourcePerimeterSpacing&quot;:0,&quot;targetPerimeterSpacing&quot;:0};treeFolding=1;treeMoving=1;" parent="1" vertex="1">
          <mxGeometry x="540" y="70" width="120" height="40" as="geometry" />
        </mxCell>
        <mxCell id="OfUk5gbmc0DUeR7QcJuK-57" value="" style="endArrow=open;endFill=1;endSize=12;html=1;rounded=0;entryX=1;entryY=0.5;entryDx=0;entryDy=0;exitX=0;exitY=0.5;exitDx=0;exitDy=0;" parent="1" source="OfUk5gbmc0DUeR7QcJuK-55" target="OfUk5gbmc0DUeR7QcJuK-52" edge="1">
          <mxGeometry width="160" relative="1" as="geometry">
            <mxPoint x="482" y="204" as="sourcePoint" />
            <mxPoint x="422" y="144" as="targetPoint" />
            <Array as="points">
              <mxPoint x="500" y="144" />
            </Array>
          </mxGeometry>
        </mxCell>
        <mxCell id="OfUk5gbmc0DUeR7QcJuK-58" value="" style="endArrow=open;endFill=1;endSize=12;html=1;rounded=0;entryX=1;entryY=0.5;entryDx=0;entryDy=0;exitX=0;exitY=0.5;exitDx=0;exitDy=0;" parent="1" source="OfUk5gbmc0DUeR7QcJuK-54" target="OfUk5gbmc0DUeR7QcJuK-56" edge="1">
          <mxGeometry width="160" relative="1" as="geometry">
            <mxPoint x="282" y="204" as="sourcePoint" />
            <mxPoint x="422" y="144" as="targetPoint" />
            <Array as="points">
              <mxPoint x="720" y="144" />
            </Array>
          </mxGeometry>
        </mxCell>
        <mxCell id="OfUk5gbmc0DUeR7QcJuK-59" value="" style="endArrow=open;endFill=1;endSize=12;html=1;rounded=0;entryX=1;entryY=0.5;entryDx=0;entryDy=0;exitX=0;exitY=0.5;exitDx=0;exitDy=0;" parent="1" source="OfUk5gbmc0DUeR7QcJuK-56" target="OfUk5gbmc0DUeR7QcJuK-52" edge="1">
          <mxGeometry width="160" relative="1" as="geometry">
            <mxPoint x="550" y="94" as="sourcePoint" />
            <mxPoint x="420" y="144" as="targetPoint" />
            <Array as="points">
              <mxPoint x="500" y="144" />
            </Array>
          </mxGeometry>
        </mxCell>
        <mxCell id="OfUk5gbmc0DUeR7QcJuK-60" value="&lt;font style=&quot;font-size: 10px;&quot;&gt;Extend&lt;/font&gt;" style="text;html=1;align=center;verticalAlign=middle;whiteSpace=wrap;rounded=0;rotation=0;" parent="1" vertex="1">
          <mxGeometry x="452" y="130" width="30" height="10" as="geometry" />
        </mxCell>
        <mxCell id="OfUk5gbmc0DUeR7QcJuK-62" value="" style="endArrow=open;endFill=1;endSize=12;html=1;rounded=0;entryX=1;entryY=0.5;entryDx=0;entryDy=0;exitX=0;exitY=0.5;exitDx=0;exitDy=0;" parent="1" source="OfUk5gbmc0DUeR7QcJuK-54" target="OfUk5gbmc0DUeR7QcJuK-55" edge="1">
          <mxGeometry width="160" relative="1" as="geometry">
            <mxPoint x="720" y="130" as="sourcePoint" />
            <mxPoint x="682" y="104" as="targetPoint" />
            <Array as="points" />
          </mxGeometry>
        </mxCell>
        <mxCell id="qIlZXLb7USLVibtDSA9S-1" value="&lt;font style=&quot;font-size: 10px;&quot;&gt;Extend&lt;/font&gt;" style="text;html=1;align=center;verticalAlign=middle;whiteSpace=wrap;rounded=0;rotation=0;" vertex="1" parent="1">
          <mxGeometry x="732" y="132" width="30" height="10" as="geometry" />
        </mxCell>
        <mxCell id="qIlZXLb7USLVibtDSA9S-3" value="keywords Search" style="ellipse;whiteSpace=wrap;html=1;align=center;newEdgeStyle={&quot;edgeStyle&quot;:&quot;entityRelationEdgeStyle&quot;,&quot;startArrow&quot;:&quot;none&quot;,&quot;endArrow&quot;:&quot;none&quot;,&quot;segment&quot;:10,&quot;curved&quot;:1,&quot;sourcePerimeterSpacing&quot;:0,&quot;targetPerimeterSpacing&quot;:0};treeFolding=1;treeMoving=1;" vertex="1" parent="1">
          <mxGeometry x="547" y="180" width="120" height="40" as="geometry" />
        </mxCell>
        <mxCell id="qIlZXLb7USLVibtDSA9S-4" value="" style="endArrow=open;endFill=1;endSize=12;html=1;rounded=0;entryX=1;entryY=0.5;entryDx=0;entryDy=0;exitX=0;exitY=0.5;exitDx=0;exitDy=0;" edge="1" parent="1" source="OfUk5gbmc0DUeR7QcJuK-54" target="qIlZXLb7USLVibtDSA9S-3">
          <mxGeometry width="160" relative="1" as="geometry">
            <mxPoint x="730" y="190" as="sourcePoint" />
            <mxPoint x="670" y="190" as="targetPoint" />
            <Array as="points">
              <mxPoint x="720" y="144" />
            </Array>
          </mxGeometry>
        </mxCell>
        <mxCell id="qIlZXLb7USLVibtDSA9S-9" value="" style="endArrow=open;endFill=1;endSize=12;html=1;rounded=0;entryX=1;entryY=0.5;entryDx=0;entryDy=0;exitX=0;exitY=0.5;exitDx=0;exitDy=0;" edge="1" parent="1" source="qIlZXLb7USLVibtDSA9S-3" target="OfUk5gbmc0DUeR7QcJuK-52">
          <mxGeometry width="160" relative="1" as="geometry">
            <mxPoint x="550" y="100" as="sourcePoint" />
            <mxPoint x="420" y="154" as="targetPoint" />
            <Array as="points">
              <mxPoint x="500" y="144" />
            </Array>
          </mxGeometry>
        </mxCell>
        <mxCell id="qIlZXLb7USLVibtDSA9S-10" value="manage their offers" style="ellipse;whiteSpace=wrap;html=1;align=center;fillColor=#FFFF00;" vertex="1" parent="1">
          <mxGeometry x="217" y="423" width="150" height="40" as="geometry" />
        </mxCell>
        <mxCell id="qIlZXLb7USLVibtDSA9S-23" style="edgeStyle=orthogonalEdgeStyle;rounded=0;orthogonalLoop=1;jettySize=auto;html=1;entryX=1;entryY=0.5;entryDx=0;entryDy=0;" edge="1" parent="1" source="qIlZXLb7USLVibtDSA9S-11" target="qIlZXLb7USLVibtDSA9S-10">
          <mxGeometry relative="1" as="geometry">
            <Array as="points">
              <mxPoint x="470" y="390" />
              <mxPoint x="470" y="443" />
            </Array>
          </mxGeometry>
        </mxCell>
        <mxCell id="qIlZXLb7USLVibtDSA9S-11" value="Add offers" style="ellipse;whiteSpace=wrap;html=1;align=center;" vertex="1" parent="1">
          <mxGeometry x="500" y="370" width="150" height="40" as="geometry" />
        </mxCell>
        <mxCell id="qIlZXLb7USLVibtDSA9S-24" style="edgeStyle=orthogonalEdgeStyle;rounded=0;orthogonalLoop=1;jettySize=auto;html=1;entryX=1;entryY=0.5;entryDx=0;entryDy=0;" edge="1" parent="1" source="qIlZXLb7USLVibtDSA9S-14" target="qIlZXLb7USLVibtDSA9S-10">
          <mxGeometry relative="1" as="geometry" />
        </mxCell>
        <mxCell id="qIlZXLb7USLVibtDSA9S-14" value="Update offers" style="ellipse;whiteSpace=wrap;html=1;align=center;" vertex="1" parent="1">
          <mxGeometry x="510" y="423" width="150" height="40" as="geometry" />
        </mxCell>
        <mxCell id="qIlZXLb7USLVibtDSA9S-25" style="edgeStyle=orthogonalEdgeStyle;rounded=0;orthogonalLoop=1;jettySize=auto;html=1;entryX=1;entryY=0.5;entryDx=0;entryDy=0;" edge="1" parent="1" source="qIlZXLb7USLVibtDSA9S-15" target="qIlZXLb7USLVibtDSA9S-10">
          <mxGeometry relative="1" as="geometry">
            <Array as="points">
              <mxPoint x="470" y="490" />
              <mxPoint x="470" y="443" />
            </Array>
          </mxGeometry>
        </mxCell>
        <mxCell id="qIlZXLb7USLVibtDSA9S-15" value="Delete offers" style="ellipse;whiteSpace=wrap;html=1;align=center;" vertex="1" parent="1">
          <mxGeometry x="517" y="470" width="150" height="40" as="geometry" />
        </mxCell>
        <mxCell id="qIlZXLb7USLVibtDSA9S-20" value="" style="endArrow=open;endFill=1;endSize=12;html=1;rounded=0;entryX=0.5;entryY=0;entryDx=0;entryDy=0;exitX=0.5;exitY=1;exitDx=0;exitDy=0;" edge="1" parent="1" source="OfUk5gbmc0DUeR7QcJuK-9" target="OfUk5gbmc0DUeR7QcJuK-8">
          <mxGeometry width="160" relative="1" as="geometry">
            <mxPoint x="494" y="-144" as="sourcePoint" />
            <mxPoint x="360" y="-110" as="targetPoint" />
            <Array as="points" />
          </mxGeometry>
        </mxCell>
        <mxCell id="qIlZXLb7USLVibtDSA9S-21" value="&lt;font style=&quot;font-size: 10px;&quot;&gt;Extend&lt;/font&gt;" style="text;html=1;align=center;verticalAlign=middle;whiteSpace=wrap;rounded=0;rotation=0;" vertex="1" parent="1">
          <mxGeometry x="547" y="-134" width="30" height="10" as="geometry" />
        </mxCell>
        <mxCell id="qIlZXLb7USLVibtDSA9S-22" value="" style="endArrow=none;html=1;rounded=0;exitX=1;exitY=0.3333333333333333;exitDx=0;exitDy=0;exitPerimeter=0;entryX=0;entryY=0.5;entryDx=0;entryDy=0;" edge="1" parent="1" source="OfUk5gbmc0DUeR7QcJuK-7" target="qIlZXLb7USLVibtDSA9S-10">
          <mxGeometry relative="1" as="geometry">
            <mxPoint x="300" y="480" as="sourcePoint" />
            <mxPoint x="460" y="480" as="targetPoint" />
          </mxGeometry>
        </mxCell>
        <mxCell id="qIlZXLb7USLVibtDSA9S-30" value="&lt;font style=&quot;font-size: 10px;&quot;&gt;Extend&lt;/font&gt;" style="text;html=1;align=center;verticalAlign=middle;whiteSpace=wrap;rounded=0;rotation=0;" vertex="1" parent="1">
          <mxGeometry x="425" y="430" width="30" height="10" as="geometry" />
        </mxCell>
        <mxCell id="qIlZXLb7USLVibtDSA9S-32" style="edgeStyle=orthogonalEdgeStyle;rounded=0;orthogonalLoop=1;jettySize=auto;html=1;entryX=1;entryY=0.5;entryDx=0;entryDy=0;" edge="1" parent="1" source="qIlZXLb7USLVibtDSA9S-31" target="qIlZXLb7USLVibtDSA9S-11">
          <mxGeometry relative="1" as="geometry">
            <Array as="points">
              <mxPoint x="720" y="340" />
              <mxPoint x="720" y="390" />
            </Array>
          </mxGeometry>
        </mxCell>
        <mxCell id="qIlZXLb7USLVibtDSA9S-31" value="Associate a category and multiple tags" style="ellipse;whiteSpace=wrap;html=1;align=center;" vertex="1" parent="1">
          <mxGeometry x="732" y="320" width="240" height="40" as="geometry" />
        </mxCell>
        <mxCell id="qIlZXLb7USLVibtDSA9S-34" style="edgeStyle=orthogonalEdgeStyle;rounded=0;orthogonalLoop=1;jettySize=auto;html=1;entryX=1;entryY=0.5;entryDx=0;entryDy=0;" edge="1" parent="1" source="qIlZXLb7USLVibtDSA9S-33" target="qIlZXLb7USLVibtDSA9S-11">
          <mxGeometry relative="1" as="geometry">
            <Array as="points">
              <mxPoint x="720" y="410" />
              <mxPoint x="720" y="390" />
            </Array>
          </mxGeometry>
        </mxCell>
        <mxCell id="qIlZXLb7USLVibtDSA9S-33" value="Add offer details" style="ellipse;whiteSpace=wrap;html=1;align=center;" vertex="1" parent="1">
          <mxGeometry x="771" y="390" width="158" height="40" as="geometry" />
        </mxCell>
        <mxCell id="qIlZXLb7USLVibtDSA9S-35" value="&lt;font style=&quot;font-size: 10px;&quot;&gt;Include&lt;/font&gt;" style="text;html=1;align=center;verticalAlign=middle;whiteSpace=wrap;rounded=0;rotation=0;" vertex="1" parent="1">
          <mxGeometry x="674" y="380" width="30" height="10" as="geometry" />
        </mxCell>
        <mxCell id="qIlZXLb7USLVibtDSA9S-38" value="manage all offers" style="ellipse;whiteSpace=wrap;html=1;align=center;fillColor=#FFFF00;" vertex="1" parent="1">
          <mxGeometry x="219" y="683" width="150" height="40" as="geometry" />
        </mxCell>
        <mxCell id="qIlZXLb7USLVibtDSA9S-39" style="edgeStyle=orthogonalEdgeStyle;rounded=0;orthogonalLoop=1;jettySize=auto;html=1;entryX=1;entryY=0.5;entryDx=0;entryDy=0;exitX=0;exitY=0.5;exitDx=0;exitDy=0;" edge="1" source="qIlZXLb7USLVibtDSA9S-47" target="qIlZXLb7USLVibtDSA9S-38" parent="1">
          <mxGeometry relative="1" as="geometry">
            <Array as="points">
              <mxPoint x="429" y="730" />
              <mxPoint x="429" y="703" />
            </Array>
          </mxGeometry>
        </mxCell>
        <mxCell id="qIlZXLb7USLVibtDSA9S-40" value="Add offer details" style="ellipse;whiteSpace=wrap;html=1;align=center;" vertex="1" parent="1">
          <mxGeometry x="740" y="630" width="158" height="40" as="geometry" />
        </mxCell>
        <mxCell id="qIlZXLb7USLVibtDSA9S-41" value="Associate a category and multiple tags" style="ellipse;whiteSpace=wrap;html=1;align=center;" vertex="1" parent="1">
          <mxGeometry x="704" y="562" width="240" height="40" as="geometry" />
        </mxCell>
        <mxCell id="qIlZXLb7USLVibtDSA9S-42" style="edgeStyle=orthogonalEdgeStyle;rounded=0;orthogonalLoop=1;jettySize=auto;html=1;entryX=1;entryY=0.5;entryDx=0;entryDy=0;exitX=0;exitY=0.5;exitDx=0;exitDy=0;" edge="1" source="qIlZXLb7USLVibtDSA9S-41" target="qIlZXLb7USLVibtDSA9S-45" parent="1">
          <mxGeometry relative="1" as="geometry">
            <Array as="points">
              <mxPoint x="679" y="580" />
              <mxPoint x="679" y="630" />
            </Array>
          </mxGeometry>
        </mxCell>
        <mxCell id="qIlZXLb7USLVibtDSA9S-43" style="edgeStyle=orthogonalEdgeStyle;rounded=0;orthogonalLoop=1;jettySize=auto;html=1;entryX=1;entryY=0.5;entryDx=0;entryDy=0;exitX=0;exitY=0.5;exitDx=0;exitDy=0;" edge="1" source="qIlZXLb7USLVibtDSA9S-40" target="qIlZXLb7USLVibtDSA9S-45" parent="1">
          <mxGeometry relative="1" as="geometry">
            <Array as="points">
              <mxPoint x="679" y="650" />
              <mxPoint x="679" y="630" />
            </Array>
          </mxGeometry>
        </mxCell>
        <mxCell id="qIlZXLb7USLVibtDSA9S-44" value="&lt;font style=&quot;font-size: 10px;&quot;&gt;Include&lt;/font&gt;" style="text;html=1;align=center;verticalAlign=middle;whiteSpace=wrap;rounded=0;rotation=0;" vertex="1" parent="1">
          <mxGeometry x="633" y="620" width="30" height="10" as="geometry" />
        </mxCell>
        <mxCell id="qIlZXLb7USLVibtDSA9S-45" value="Add offers" style="ellipse;whiteSpace=wrap;html=1;align=center;" vertex="1" parent="1">
          <mxGeometry x="455" y="610" width="150" height="40" as="geometry" />
        </mxCell>
        <mxCell id="qIlZXLb7USLVibtDSA9S-46" value="Update offers" style="ellipse;whiteSpace=wrap;html=1;align=center;" vertex="1" parent="1">
          <mxGeometry x="452.5" y="660" width="150" height="40" as="geometry" />
        </mxCell>
        <mxCell id="qIlZXLb7USLVibtDSA9S-47" value="Delete offers" style="ellipse;whiteSpace=wrap;html=1;align=center;" vertex="1" parent="1">
          <mxGeometry x="455" y="710" width="150" height="40" as="geometry" />
        </mxCell>
        <mxCell id="qIlZXLb7USLVibtDSA9S-48" style="edgeStyle=orthogonalEdgeStyle;rounded=0;orthogonalLoop=1;jettySize=auto;html=1;entryX=1;entryY=0.5;entryDx=0;entryDy=0;exitX=0;exitY=0.5;exitDx=0;exitDy=0;" edge="1" source="qIlZXLb7USLVibtDSA9S-45" target="qIlZXLb7USLVibtDSA9S-38" parent="1">
          <mxGeometry relative="1" as="geometry">
            <Array as="points">
              <mxPoint x="429" y="630" />
              <mxPoint x="429" y="703" />
            </Array>
          </mxGeometry>
        </mxCell>
        <mxCell id="qIlZXLb7USLVibtDSA9S-49" style="edgeStyle=orthogonalEdgeStyle;rounded=0;orthogonalLoop=1;jettySize=auto;html=1;entryX=1;entryY=0.5;entryDx=0;entryDy=0;" edge="1" source="qIlZXLb7USLVibtDSA9S-46" target="qIlZXLb7USLVibtDSA9S-38" parent="1">
          <mxGeometry relative="1" as="geometry">
            <Array as="points">
              <mxPoint x="430" y="680" />
              <mxPoint x="430" y="703" />
            </Array>
          </mxGeometry>
        </mxCell>
        <mxCell id="qIlZXLb7USLVibtDSA9S-50" value="&lt;font style=&quot;font-size: 10px;&quot;&gt;Extend&lt;/font&gt;" style="text;html=1;align=center;verticalAlign=middle;whiteSpace=wrap;rounded=0;rotation=0;" vertex="1" parent="1">
          <mxGeometry x="384" y="690" width="30" height="10" as="geometry" />
        </mxCell>
        <mxCell id="qIlZXLb7USLVibtDSA9S-51" value="" style="endArrow=none;html=1;rounded=0;exitX=1;exitY=0.3333333333333333;exitDx=0;exitDy=0;exitPerimeter=0;entryX=0;entryY=0.5;entryDx=0;entryDy=0;" edge="1" parent="1" source="OfUk5gbmc0DUeR7QcJuK-10" target="qIlZXLb7USLVibtDSA9S-38">
          <mxGeometry relative="1" as="geometry">
            <mxPoint x="128" y="453" as="sourcePoint" />
            <mxPoint x="270" y="520" as="targetPoint" />
          </mxGeometry>
        </mxCell>
        <mxCell id="qIlZXLb7USLVibtDSA9S-54" style="edgeStyle=orthogonalEdgeStyle;rounded=0;orthogonalLoop=1;jettySize=auto;html=1;entryX=1;entryY=0.5;entryDx=0;entryDy=0;exitX=0;exitY=0.5;exitDx=0;exitDy=0;" edge="1" parent="1" source="qIlZXLb7USLVibtDSA9S-52" target="qIlZXLb7USLVibtDSA9S-38">
          <mxGeometry relative="1" as="geometry">
            <Array as="points">
              <mxPoint x="430" y="780" />
              <mxPoint x="430" y="703" />
            </Array>
          </mxGeometry>
        </mxCell>
        <mxCell id="qIlZXLb7USLVibtDSA9S-52" value="archive offers" style="ellipse;whiteSpace=wrap;html=1;align=center;" vertex="1" parent="1">
          <mxGeometry x="452.5" y="760" width="150" height="40" as="geometry" />
        </mxCell>
        <mxCell id="qIlZXLb7USLVibtDSA9S-56" value="view statistics" style="ellipse;whiteSpace=wrap;html=1;align=center;fillColor=#FFFF00;" vertex="1" parent="1">
          <mxGeometry x="209.5" y="1166.67" width="150" height="40" as="geometry" />
        </mxCell>
        <mxCell id="qIlZXLb7USLVibtDSA9S-57" value="" style="endArrow=none;html=1;rounded=0;exitX=1;exitY=0.3333333333333333;exitDx=0;exitDy=0;exitPerimeter=0;entryX=0;entryY=0.5;entryDx=0;entryDy=0;" edge="1" parent="1" source="OfUk5gbmc0DUeR7QcJuK-10" target="qIlZXLb7USLVibtDSA9S-56">
          <mxGeometry relative="1" as="geometry">
            <mxPoint x="64.5" y="390.0033333333335" as="sourcePoint" />
            <mxPoint x="174.5" y="399.67" as="targetPoint" />
          </mxGeometry>
        </mxCell>
        <mxCell id="qIlZXLb7USLVibtDSA9S-62" style="edgeStyle=orthogonalEdgeStyle;rounded=0;orthogonalLoop=1;jettySize=auto;html=1;entryX=1;entryY=0.5;entryDx=0;entryDy=0;" edge="1" parent="1" source="qIlZXLb7USLVibtDSA9S-58" target="qIlZXLb7USLVibtDSA9S-56">
          <mxGeometry relative="1" as="geometry">
            <Array as="points">
              <mxPoint x="425.5" y="1136.67" />
              <mxPoint x="425.5" y="1186.67" />
            </Array>
          </mxGeometry>
        </mxCell>
        <mxCell id="qIlZXLb7USLVibtDSA9S-58" value="Number of job offers by category." style="ellipse;whiteSpace=wrap;html=1;align=center;" vertex="1" parent="1">
          <mxGeometry x="475.5" y="1116.67" width="187.5" height="40" as="geometry" />
        </mxCell>
        <mxCell id="qIlZXLb7USLVibtDSA9S-63" style="edgeStyle=orthogonalEdgeStyle;rounded=0;orthogonalLoop=1;jettySize=auto;html=1;entryX=1;entryY=0.5;entryDx=0;entryDy=0;" edge="1" parent="1" source="qIlZXLb7USLVibtDSA9S-60" target="qIlZXLb7USLVibtDSA9S-56">
          <mxGeometry relative="1" as="geometry" />
        </mxCell>
        <mxCell id="qIlZXLb7USLVibtDSA9S-60" value="Most used tags." style="ellipse;whiteSpace=wrap;html=1;align=center;" vertex="1" parent="1">
          <mxGeometry x="494.25" y="1166.67" width="150" height="40" as="geometry" />
        </mxCell>
        <mxCell id="qIlZXLb7USLVibtDSA9S-64" style="edgeStyle=orthogonalEdgeStyle;rounded=0;orthogonalLoop=1;jettySize=auto;html=1;entryX=1;entryY=0.5;entryDx=0;entryDy=0;" edge="1" parent="1" source="qIlZXLb7USLVibtDSA9S-61" target="qIlZXLb7USLVibtDSA9S-56">
          <mxGeometry relative="1" as="geometry">
            <Array as="points">
              <mxPoint x="425.5" y="1236.67" />
              <mxPoint x="425.5" y="1186.67" />
            </Array>
          </mxGeometry>
        </mxCell>
        <mxCell id="qIlZXLb7USLVibtDSA9S-61" value="Most active recruiters" style="ellipse;whiteSpace=wrap;html=1;align=center;" vertex="1" parent="1">
          <mxGeometry x="494.25" y="1216.67" width="150" height="40" as="geometry" />
        </mxCell>
        <mxCell id="qIlZXLb7USLVibtDSA9S-65" value="&lt;font style=&quot;font-size: 10px;&quot;&gt;Extend&lt;/font&gt;" style="text;html=1;align=center;verticalAlign=middle;whiteSpace=wrap;rounded=0;rotation=0;" vertex="1" parent="1">
          <mxGeometry x="385.5" y="1166.67" width="30" height="10" as="geometry" />
        </mxCell>
        <mxCell id="qIlZXLb7USLVibtDSA9S-67" value="Category Management" style="ellipse;whiteSpace=wrap;html=1;align=center;fillColor=#FFFF00;" vertex="1" parent="1">
          <mxGeometry x="215" y="866" width="150" height="40" as="geometry" />
        </mxCell>
        <mxCell id="qIlZXLb7USLVibtDSA9S-68" value="" style="endArrow=none;html=1;rounded=0;exitX=1;exitY=0.3333333333333333;exitDx=0;exitDy=0;exitPerimeter=0;entryX=0;entryY=0.5;entryDx=0;entryDy=0;" edge="1" parent="1" source="OfUk5gbmc0DUeR7QcJuK-10" target="qIlZXLb7USLVibtDSA9S-67">
          <mxGeometry relative="1" as="geometry">
            <mxPoint x="129" y="713" as="sourcePoint" />
            <mxPoint x="229" y="713" as="targetPoint" />
          </mxGeometry>
        </mxCell>
        <mxCell id="qIlZXLb7USLVibtDSA9S-69" value="Add" style="ellipse;whiteSpace=wrap;html=1;align=center;" vertex="1" parent="1">
          <mxGeometry x="459" y="813" width="150" height="40" as="geometry" />
        </mxCell>
        <mxCell id="qIlZXLb7USLVibtDSA9S-70" value="Update" style="ellipse;whiteSpace=wrap;html=1;align=center;" vertex="1" parent="1">
          <mxGeometry x="469" y="866" width="150" height="40" as="geometry" />
        </mxCell>
        <mxCell id="qIlZXLb7USLVibtDSA9S-71" value="Delete" style="ellipse;whiteSpace=wrap;html=1;align=center;" vertex="1" parent="1">
          <mxGeometry x="476" y="913" width="150" height="40" as="geometry" />
        </mxCell>
        <mxCell id="qIlZXLb7USLVibtDSA9S-72" style="edgeStyle=orthogonalEdgeStyle;rounded=0;orthogonalLoop=1;jettySize=auto;html=1;entryX=1;entryY=0.5;entryDx=0;entryDy=0;" edge="1" source="qIlZXLb7USLVibtDSA9S-71" parent="1" target="qIlZXLb7USLVibtDSA9S-67">
          <mxGeometry relative="1" as="geometry">
            <mxPoint x="369" y="886" as="targetPoint" />
            <Array as="points">
              <mxPoint x="429" y="933" />
              <mxPoint x="429" y="886" />
            </Array>
          </mxGeometry>
        </mxCell>
        <mxCell id="qIlZXLb7USLVibtDSA9S-73" style="edgeStyle=orthogonalEdgeStyle;rounded=0;orthogonalLoop=1;jettySize=auto;html=1;entryX=1;entryY=0.5;entryDx=0;entryDy=0;" edge="1" source="qIlZXLb7USLVibtDSA9S-70" parent="1" target="qIlZXLb7USLVibtDSA9S-67">
          <mxGeometry relative="1" as="geometry">
            <mxPoint x="369" y="886" as="targetPoint" />
          </mxGeometry>
        </mxCell>
        <mxCell id="qIlZXLb7USLVibtDSA9S-74" style="edgeStyle=orthogonalEdgeStyle;rounded=0;orthogonalLoop=1;jettySize=auto;html=1;entryX=1;entryY=0.5;entryDx=0;entryDy=0;" edge="1" source="qIlZXLb7USLVibtDSA9S-69" parent="1" target="qIlZXLb7USLVibtDSA9S-67">
          <mxGeometry relative="1" as="geometry">
            <mxPoint x="369" y="886" as="targetPoint" />
            <Array as="points">
              <mxPoint x="429" y="833" />
              <mxPoint x="429" y="886" />
            </Array>
          </mxGeometry>
        </mxCell>
        <mxCell id="qIlZXLb7USLVibtDSA9S-75" value="&lt;font style=&quot;font-size: 10px;&quot;&gt;Extend&lt;/font&gt;" style="text;html=1;align=center;verticalAlign=middle;whiteSpace=wrap;rounded=0;rotation=0;" vertex="1" parent="1">
          <mxGeometry x="384" y="873" width="30" height="10" as="geometry" />
        </mxCell>
        <mxCell id="qIlZXLb7USLVibtDSA9S-76" value="Add&amp;nbsp;" style="ellipse;whiteSpace=wrap;html=1;align=center;" vertex="1" parent="1">
          <mxGeometry x="466" y="970" width="150" height="40" as="geometry" />
        </mxCell>
        <mxCell id="qIlZXLb7USLVibtDSA9S-77" value="Update&amp;nbsp;" style="ellipse;whiteSpace=wrap;html=1;align=center;" vertex="1" parent="1">
          <mxGeometry x="476" y="1023" width="150" height="40" as="geometry" />
        </mxCell>
        <mxCell id="qIlZXLb7USLVibtDSA9S-78" value="Delete" style="ellipse;whiteSpace=wrap;html=1;align=center;" vertex="1" parent="1">
          <mxGeometry x="483" y="1070" width="150" height="40" as="geometry" />
        </mxCell>
        <mxCell id="qIlZXLb7USLVibtDSA9S-79" style="edgeStyle=orthogonalEdgeStyle;rounded=0;orthogonalLoop=1;jettySize=auto;html=1;entryX=1;entryY=0.5;entryDx=0;entryDy=0;" edge="1" source="qIlZXLb7USLVibtDSA9S-78" parent="1" target="qIlZXLb7USLVibtDSA9S-83">
          <mxGeometry relative="1" as="geometry">
            <mxPoint x="376" y="1043" as="targetPoint" />
            <Array as="points">
              <mxPoint x="436" y="1090" />
              <mxPoint x="436" y="1043" />
            </Array>
          </mxGeometry>
        </mxCell>
        <mxCell id="qIlZXLb7USLVibtDSA9S-80" style="edgeStyle=orthogonalEdgeStyle;rounded=0;orthogonalLoop=1;jettySize=auto;html=1;entryX=1;entryY=0.5;entryDx=0;entryDy=0;" edge="1" source="qIlZXLb7USLVibtDSA9S-77" parent="1" target="qIlZXLb7USLVibtDSA9S-83">
          <mxGeometry relative="1" as="geometry">
            <mxPoint x="376" y="1043" as="targetPoint" />
          </mxGeometry>
        </mxCell>
        <mxCell id="qIlZXLb7USLVibtDSA9S-81" style="edgeStyle=orthogonalEdgeStyle;rounded=0;orthogonalLoop=1;jettySize=auto;html=1;entryX=1;entryY=0.5;entryDx=0;entryDy=0;" edge="1" source="qIlZXLb7USLVibtDSA9S-76" parent="1" target="qIlZXLb7USLVibtDSA9S-83">
          <mxGeometry relative="1" as="geometry">
            <mxPoint x="376" y="1043" as="targetPoint" />
            <Array as="points">
              <mxPoint x="436" y="990" />
              <mxPoint x="436" y="1043" />
            </Array>
          </mxGeometry>
        </mxCell>
        <mxCell id="qIlZXLb7USLVibtDSA9S-82" value="&lt;font style=&quot;font-size: 10px;&quot;&gt;Extend&lt;/font&gt;" style="text;html=1;align=center;verticalAlign=middle;whiteSpace=wrap;rounded=0;rotation=0;" vertex="1" parent="1">
          <mxGeometry x="391" y="1030" width="30" height="10" as="geometry" />
        </mxCell>
        <mxCell id="qIlZXLb7USLVibtDSA9S-83" value="Tags Management" style="ellipse;whiteSpace=wrap;html=1;align=center;fillColor=#FFFF00;" vertex="1" parent="1">
          <mxGeometry x="217" y="1023" width="150" height="40" as="geometry" />
        </mxCell>
        <mxCell id="qIlZXLb7USLVibtDSA9S-84" value="" style="endArrow=none;html=1;rounded=0;entryX=0;entryY=0.5;entryDx=0;entryDy=0;exitX=1;exitY=0.3333333333333333;exitDx=0;exitDy=0;exitPerimeter=0;" edge="1" parent="1" source="OfUk5gbmc0DUeR7QcJuK-10" target="qIlZXLb7USLVibtDSA9S-83">
          <mxGeometry relative="1" as="geometry">
            <mxPoint x="140" y="710" as="sourcePoint" />
            <mxPoint x="225" y="896" as="targetPoint" />
          </mxGeometry>
        </mxCell>
      </root>
    </mxGraphModel>
  </diagram>
</mxfile>
